<svg xmlns="http://www.w3.org/2000/svg" xmlns:xlink="http://www.w3.org/1999/xlink" width="500" zoomAndPan="magnify" viewBox="0 0 375 374.999991" height="500" preserveAspectRatio="xMidYMid meet" version="1.0"><defs><clipPath id="edd89927c1"><path d="M 82 146 L 329 146 L 329 352.339844 L 82 352.339844 Z M 82 146 " clip-rule="nonzero"/></clipPath><clipPath id="84116c069a"><path d="M 51 22.339844 L 230 22.339844 L 230 239 L 51 239 Z M 51 22.339844 " clip-rule="nonzero"/></clipPath></defs><rect x="-37.5" width="450" fill="#ffffff" y="-37.499999" height="449.999989" fill-opacity="1"/><rect x="-37.5" width="450" fill="#ffffff" y="-37.499999" height="449.999989" fill-opacity="1"/><g clip-path="url(#edd89927c1)"><path fill="#0cc0df" d="M 168.855469 287.460938 C 180.679688 285.910156 191.9375 275.355469 192.148438 275.160156 C 192.125 275.234375 192.523438 275.988281 203.15625 283.257812 C 215.933594 291.992188 227.53125 278.953125 227.53125 278.953125 C 244.921875 289.769531 256.863281 284.65625 256.863281 284.65625 C 246.285156 291.519531 231.234375 286.980469 231.234375 286.980469 C 208.191406 299.960938 192.605469 284.429688 192.605469 284.429688 C 182.929688 289.042969 168.855469 287.460938 168.855469 287.460938 Z M 82.710938 277.25 C 90.070312 293.320312 100.632812 307.613281 113.582031 319.3125 C 150.753906 313.355469 165.117188 296.449219 165.117188 296.449219 C 165.117188 296.449219 175.886719 315.167969 201.347656 314.992188 C 226.804688 314.8125 232.421875 296.449219 232.421875 296.449219 C 232.421875 296.449219 241.492188 308.3125 264.992188 314.078125 C 280.089844 317.78125 297.796875 308.398438 302.964844 301.253906 L 302.972656 301.242188 C 293.9375 299.023438 287.597656 296.667969 287.597656 296.667969 C 269.472656 307.558594 250.414062 299.636719 250.414062 299.636719 C 269.53125 303.070312 285.421875 279.230469 285.421875 279.230469 C 285.421875 279.230469 292.324219 288.019531 307.640625 294.640625 C 321.101562 274.277344 328.941406 249.871094 328.941406 223.632812 C 328.941406 194.664062 319.386719 167.925781 303.257812 146.394531 C 301.050781 147.957031 298.492188 150.046875 295.261719 153.53125 C 268.867188 182.003906 231.144531 210.074219 201.707031 228.476562 C 161.441406 253.644531 119.199219 269.964844 82.710938 277.25 Z M 116.34375 321.738281 C 138.863281 340.960938 168.078125 352.570312 200.003906 352.570312 C 227.957031 352.570312 253.828125 343.671875 274.953125 328.558594 C 252.429688 329.101562 236.691406 316.289062 236.691406 316.289062 C 201.410156 341.59375 165.117188 315.167969 165.117188 315.167969 C 140.007812 322.175781 124.652344 322.566406 116.34375 321.738281 " fill-opacity="1" fill-rule="nonzero"/></g><path fill="#0cc0df" d="M 201.707031 228.476562 C 231.144531 210.074219 268.867188 182.003906 295.261719 153.53125 C 298.492188 150.046875 301.050781 147.957031 303.257812 146.394531 C 303.871094 147.21875 304.476562 148.050781 305.070312 148.886719 C 289.386719 173.042969 259.019531 214.359375 216.03125 248.324219 C 177.910156 278.441406 138.644531 300.042969 105.257812 311.082031 C 96.066406 301.128906 88.421875 289.722656 82.710938 277.25 C 119.199219 269.964844 161.441406 253.644531 201.707031 228.476562 " fill-opacity="1" fill-rule="nonzero"/><path fill="#ff914d" d="M 290.5 131.792969 C 276.765625 146.789062 251.183594 171.671875 215.242188 193.992188 C 184.613281 213.003906 152.652344 227.308594 124.796875 234.929688 C 118.925781 236.535156 113.234375 237.847656 107.777344 238.839844 C 99.546875 240.339844 91.847656 241.121094 84.855469 241.121094 C 80.113281 241.121094 75.84375 240.757812 72.105469 240.058594 C 71.421875 234.679688 71.066406 229.199219 71.066406 223.632812 C 71.066406 176.78125 96.054688 135.765625 133.429688 113.191406 C 144.933594 106.238281 157.617188 101.035156 171.105469 97.949219 C 171.175781 97.929688 171.242188 97.914062 171.316406 97.902344 C 174.820312 97.101562 178.382812 96.449219 181.992188 95.945312 C 182.492188 95.875 182.996094 95.808594 183.5 95.742188 C 187.066406 95.285156 190.675781 94.976562 194.332031 94.820312 C 194.566406 94.808594 194.800781 94.796875 195.035156 94.789062 C 196.6875 94.726562 198.339844 94.695312 200.003906 94.695312 C 206.558594 94.695312 212.996094 95.183594 219.285156 96.128906 C 246.84375 100.261719 271.550781 113.117188 290.5 131.792969 " fill-opacity="1" fill-rule="nonzero"/><path fill="#000000" d="M 359.578125 78.195312 C 369.589844 62.851562 375 49.226562 371.773438 47.027344 C 368.546875 44.828125 357.835938 54.832031 347.199219 69.75 L 306.34375 70.0625 L 299.800781 79.648438 L 331.832031 93.671875 C 327.707031 100.472656 323.4375 107.757812 319.699219 114.464844 L 298.816406 113.371094 L 295.6875 117.960938 L 313.550781 125.972656 C 313.234375 126.601562 281.023438 169.4375 222.539062 205.75 C 143.433594 254.867188 63.796875 269.726562 44.636719 238.882812 C 31.359375 217.515625 50.617188 179.820312 90.011719 142.335938 C 26.988281 191.164062 -7.773438 245.9375 9.910156 274.402344 C 30.992188 308.332031 118.773438 292.242188 205.648438 237.945312 C 275.902344 194.03125 319.3125 130.246094 319.503906 130.03125 L 327.03125 140.46875 L 330.164062 135.878906 L 327.972656 120.109375 C 332.859375 114.183594 338.085938 107.550781 342.910156 101.230469 L 350.046875 123.019531 L 356.589844 113.429688 L 359.578125 78.195312 " fill-opacity="1" fill-rule="nonzero"/><g clip-path="url(#84116c069a)"><path fill="#00bf63" d="M 198.433594 97.566406 C 202.550781 101.113281 207.550781 103.445312 212.886719 104.472656 C 218.539062 105.5625 223.816406 107.273438 229.625 110.03125 C 229.625 110.03125 226.105469 103.375 219.285156 96.128906 C 209.109375 85.3125 191.582031 73.191406 167.464844 80.007812 C 167.816406 79.785156 168.171875 79.5625 168.535156 79.335938 C 166.796875 78.644531 164.777344 78.078125 162.496094 77.828125 C 162.496094 77.828125 163.699219 77.464844 165.675781 77.445312 C 169.410156 77.402344 173.085938 76.488281 176.355469 74.683594 L 176.464844 74.621094 C 174.496094 73.71875 173.417969 72.214844 170.636719 71.90625 C 170.636719 71.90625 172.238281 71.425781 174.789062 71.542969 C 179.015625 71.734375 183.234375 70.949219 187.050781 69.113281 C 187.261719 69.011719 187.480469 68.910156 187.695312 68.804688 C 185.558594 67.703125 182.824219 66.703125 179.558594 66.34375 C 179.558594 66.34375 181.8125 65.59375 184.960938 65.609375 C 191.21875 65.640625 197.414062 64.351562 203.21875 62.015625 C 203.460938 61.917969 203.691406 61.828125 203.910156 61.742188 C 198.8125 60.21875 191.976562 58.679688 188.671875 58.3125 C 188.671875 58.3125 204.9375 56.617188 216.949219 57.8125 C 216.949219 57.8125 176.40625 29.847656 153.523438 80.851562 C 157.324219 68.113281 158.4375 45.941406 138.207031 32.148438 C 128.714844 25.679688 115.691406 22.402344 115.691406 22.402344 C 119.289062 25.945312 137.015625 46.890625 138.589844 50.089844 C 138.457031 49.992188 134.097656 46.765625 128.980469 44.613281 C 129.058594 44.859375 129.136719 45.101562 129.214844 45.347656 C 130.597656 49.78125 138.976562 60 139.9375 61.953125 C 139.9375 61.953125 136.414062 59.328125 131.953125 57.207031 C 133 63.640625 135.984375 70.535156 136.253906 76.347656 C 115.847656 36.644531 71.269531 48.980469 71.269531 48.980469 C 85.929688 50.542969 104.957031 56.617188 104.957031 56.617188 C 100.917969 56.230469 92.359375 56.367188 85.886719 56.921875 C 86.105469 57.066406 86.332031 57.21875 86.574219 57.378906 C 92.976562 61.636719 100.105469 64.726562 107.632812 66.273438 C 111.375 67.046875 113.859375 68.488281 113.859375 68.488281 C 109.863281 68.105469 106.34375 68.621094 103.515625 69.40625 L 103.851562 69.660156 C 108.132812 72.914062 113.15625 75.019531 118.453125 75.921875 C 121.417969 76.425781 123.140625 77.359375 123.140625 77.359375 C 119.738281 77.039062 118.074219 78.566406 115.496094 79.15625 C 115.609375 79.257812 115.722656 79.351562 115.832031 79.445312 C 116.761719 80.246094 117.738281 80.96875 118.765625 81.621094 C 65.441406 64.382812 51.558594 102.984375 51.558594 102.984375 C 63.542969 94.648438 81.664062 86.851562 82.019531 86.703125 C 78.710938 89.058594 72.335938 94.765625 67.808594 99.417969 C 67.851562 99.410156 67.894531 99.40625 67.933594 99.402344 C 75.980469 98.332031 83.730469 95.742188 90.914062 91.953125 C 94 90.324219 96.523438 89.84375 96.523438 89.84375 C 93.253906 92.175781 90.929688 94.867188 89.308594 97.3125 C 89.378906 97.308594 89.449219 97.300781 89.519531 97.296875 C 94.972656 96.953125 100.238281 95.242188 104.917969 92.421875 C 107.382812 90.941406 109.230469 90.5 109.34375 90.476562 C 106.566406 92.460938 106.308594 94.707031 104.746094 96.839844 L 104.851562 96.839844 C 109.367188 96.816406 113.828125 95.707031 117.777344 93.519531 C 119.914062 92.332031 121.453125 91.976562 121.546875 91.953125 C 119.269531 93.578125 117.453125 95.378906 116.007812 97.148438 C 118.136719 97.261719 120.167969 97.398438 122.09375 97.554688 C 92.691406 104.789062 92.859375 138.886719 92.859375 138.886719 C 94.59375 135.238281 96.839844 132.082031 99.410156 129.328125 C 100.679688 122.640625 103.367188 117.40625 103.367188 117.40625 C 102.777344 120.765625 104.046875 128.492188 104.070312 128.472656 C 108.300781 124.761719 110.109375 118.027344 112.292969 112.839844 C 112.855469 111.5 113.257812 110.726562 113.257812 110.726562 C 112.675781 113.996094 112.40625 116.921875 112.339844 119.503906 C 112.371094 119.484375 112.40625 119.46875 112.4375 119.453125 C 118.007812 116.34375 122.457031 111.550781 125.011719 105.707031 C 125.441406 104.730469 124.828125 110.917969 124.796875 113.679688 C 132.351562 106.722656 137.003906 108.679688 137.003906 108.679688 C 135.886719 110.011719 134.683594 111.511719 133.429688 113.191406 C 119.792969 131.46875 99.941406 170.761719 107.777344 238.839844 C 113.234375 237.847656 118.925781 236.535156 124.796875 234.929688 C 118.40625 208.277344 110.789062 153.449219 141.933594 112.738281 C 141.941406 113.039062 143.078125 110.910156 144.078125 109.820312 C 144.261719 109.976562 142.066406 119.207031 141.929688 123.050781 L 141.925781 123.144531 C 143.761719 121.878906 145.660156 121.722656 147.40625 119.429688 C 147.382812 119.523438 146.964844 121.074219 145.652344 123.109375 C 143.152344 126.984375 141.582031 131.378906 141.148438 135.96875 C 141.144531 136.023438 141.140625 136.082031 141.132812 136.136719 C 143.234375 134.832031 145.558594 132.945312 147.605469 130.253906 C 147.578125 130.382812 147.09375 132.445312 145.683594 134.929688 C 142.308594 140.878906 139.929688 147.339844 138.824219 154.085938 C 138.820312 154.125 138.8125 154.160156 138.808594 154.195312 C 142.84375 150.5 147.8125 145.273438 149.886719 142.550781 C 149.742188 142.859375 142.710938 157.914062 135.386719 167.789062 C 135.386719 167.789062 168.167969 153.328125 157.378906 111.972656 C 158.941406 118.1875 162.578125 123.671875 167.691406 127.519531 C 167.730469 127.550781 167.773438 127.582031 167.816406 127.613281 C 168.382812 125.332031 168.601562 119.339844 168.707031 116.503906 C 168.707031 116.503906 175.304688 124.472656 177.972656 135.835938 L 178.054688 135.910156 C 178.582031 133.710938 179.277344 127.828125 179.378906 125.128906 C 179.378906 125.128906 184.253906 135.042969 192.261719 156.507812 C 192.261719 156.507812 202.121094 119.574219 173.746094 99.515625 C 177.511719 101.46875 181.710938 102.472656 185.984375 102.441406 L 186.105469 102.441406 C 185.46875 100.96875 182.019531 97.046875 181.496094 96.308594 C 181.496094 96.308594 194.011719 102.449219 199.132812 102.808594 L 199.277344 102.820312 C 198.503906 101.070312 194.914062 95.527344 194.675781 95.1875 C 194.675781 95.1875 197.15625 96.464844 198.433594 97.566406 " fill-opacity="1" fill-rule="nonzero"/></g></svg>