<svg xmlns="http://www.w3.org/2000/svg" xmlns:xlink="http://www.w3.org/1999/xlink" width="74" zoomAndPan="magnify" viewBox="0 0 55.5 30.000001" height="40" preserveAspectRatio="xMidYMid meet" version="1.0"><defs><g/><clipPath id="1f01b15b6e"><path d="M 0.652344 0 L 54.363281 0 L 54.363281 29.03125 L 0.652344 29.03125 Z M 0.652344 0 " clip-rule="nonzero"/></clipPath></defs><g clip-path="url(#1f01b15b6e)"><path fill="#ffffff" d="M 0.652344 0 L 54.363281 0 L 54.363281 29.03125 L 0.652344 29.03125 Z M 0.652344 0 " fill-opacity="1" fill-rule="nonzero"/><path fill="#ffffff" d="M 0.652344 0 L 54.363281 0 L 54.363281 29.03125 L 0.652344 29.03125 Z M 0.652344 0 " fill-opacity="1" fill-rule="nonzero"/></g><g fill="#000000" fill-opacity="1"><g transform="translate(1.643792, 17.419356)"><g><path d="M 0.109375 -8.53125 L 0.109375 -10.671875 L 7.609375 -10.671875 L 7.609375 -8.53125 L 5.078125 -8.53125 L 5.078125 0 L 2.640625 0 L 2.640625 -8.53125 Z M 0.109375 -8.53125 "/></g></g></g><g fill="#000000" fill-opacity="1"><g transform="translate(8.138989, 17.419356)"><g><path d="M 0.78125 0 L 0.78125 -6.640625 L 3.0625 -6.640625 L 3.0625 -5.671875 L 3.09375 -5.671875 C 3.113281 -5.710938 3.140625 -5.757812 3.171875 -5.8125 C 3.210938 -5.863281 3.296875 -5.953125 3.421875 -6.078125 C 3.554688 -6.210938 3.695312 -6.328125 3.84375 -6.421875 C 3.988281 -6.523438 4.175781 -6.617188 4.40625 -6.703125 C 4.644531 -6.785156 4.882812 -6.828125 5.125 -6.828125 C 5.375 -6.828125 5.617188 -6.789062 5.859375 -6.71875 C 6.097656 -6.65625 6.273438 -6.585938 6.390625 -6.515625 L 6.578125 -6.421875 L 5.609375 -4.46875 C 5.328125 -4.71875 4.929688 -4.84375 4.421875 -4.84375 C 4.148438 -4.84375 3.914062 -4.78125 3.71875 -4.65625 C 3.519531 -4.53125 3.378906 -4.378906 3.296875 -4.203125 C 3.210938 -4.035156 3.148438 -3.890625 3.109375 -3.765625 C 3.078125 -3.648438 3.0625 -3.5625 3.0625 -3.5 L 3.0625 0 Z M 0.78125 0 "/></g></g></g><g fill="#000000" fill-opacity="1"><g transform="translate(13.366085, 17.419356)"><g><path d="M 2.015625 -10.875 L 4.640625 -8.59375 L 3.921875 -7.59375 L 0.84375 -9.375 Z M 7.484375 -3 L 2.671875 -3 C 2.671875 -2.53125 2.820312 -2.179688 3.125 -1.953125 C 3.425781 -1.734375 3.753906 -1.625 4.109375 -1.625 C 4.484375 -1.625 4.773438 -1.671875 4.984375 -1.765625 C 5.203125 -1.867188 5.453125 -2.070312 5.734375 -2.375 L 7.390625 -1.546875 C 6.703125 -0.390625 5.554688 0.1875 3.953125 0.1875 C 2.941406 0.1875 2.078125 -0.148438 1.359375 -0.828125 C 0.648438 -1.515625 0.296875 -2.34375 0.296875 -3.3125 C 0.296875 -4.28125 0.648438 -5.109375 1.359375 -5.796875 C 2.078125 -6.484375 2.941406 -6.828125 3.953125 -6.828125 C 5.003906 -6.828125 5.859375 -6.519531 6.515625 -5.90625 C 7.171875 -5.300781 7.5 -4.4375 7.5 -3.3125 C 7.5 -3.15625 7.492188 -3.050781 7.484375 -3 Z M 2.75 -4.265625 L 5.265625 -4.265625 C 5.210938 -4.609375 5.078125 -4.875 4.859375 -5.0625 C 4.640625 -5.25 4.359375 -5.34375 4.015625 -5.34375 C 3.628906 -5.34375 3.320312 -5.242188 3.09375 -5.046875 C 2.875 -4.847656 2.757812 -4.585938 2.75 -4.265625 Z M 2.75 -4.265625 "/></g></g></g><g fill="#000000" fill-opacity="1"><g transform="translate(19.951864, 17.419356)"><g><path d="M 3.65625 -6.828125 C 4.039062 -6.828125 4.414062 -6.785156 4.78125 -6.703125 C 5.15625 -6.617188 5.429688 -6.53125 5.609375 -6.4375 L 5.890625 -6.3125 L 5.140625 -4.8125 C 4.617188 -5.09375 4.125 -5.234375 3.65625 -5.234375 C 3.394531 -5.234375 3.210938 -5.203125 3.109375 -5.140625 C 3.003906 -5.085938 2.953125 -4.984375 2.953125 -4.828125 C 2.953125 -4.796875 2.953125 -4.757812 2.953125 -4.71875 C 2.960938 -4.6875 2.976562 -4.65625 3 -4.625 C 3.03125 -4.59375 3.054688 -4.566406 3.078125 -4.546875 C 3.109375 -4.523438 3.144531 -4.5 3.1875 -4.46875 C 3.238281 -4.445312 3.28125 -4.429688 3.3125 -4.421875 C 3.34375 -4.410156 3.394531 -4.390625 3.46875 -4.359375 C 3.539062 -4.335938 3.59375 -4.316406 3.625 -4.296875 C 3.65625 -4.285156 3.710938 -4.265625 3.796875 -4.234375 C 3.878906 -4.210938 3.941406 -4.195312 3.984375 -4.1875 C 4.253906 -4.113281 4.488281 -4.03125 4.6875 -3.9375 C 4.882812 -3.84375 5.09375 -3.710938 5.3125 -3.546875 C 5.53125 -3.378906 5.695312 -3.171875 5.8125 -2.921875 C 5.9375 -2.671875 6 -2.382812 6 -2.0625 C 6 -0.5625 4.953125 0.1875 2.859375 0.1875 C 2.378906 0.1875 1.925781 0.113281 1.5 -0.03125 C 1.070312 -0.175781 0.765625 -0.320312 0.578125 -0.46875 L 0.296875 -0.703125 L 1.234375 -2.265625 C 1.296875 -2.203125 1.382812 -2.128906 1.5 -2.046875 C 1.613281 -1.960938 1.816406 -1.847656 2.109375 -1.703125 C 2.398438 -1.566406 2.65625 -1.5 2.875 -1.5 C 3.34375 -1.5 3.578125 -1.660156 3.578125 -1.984375 C 3.578125 -2.128906 3.515625 -2.238281 3.390625 -2.3125 C 3.273438 -2.394531 3.070312 -2.488281 2.78125 -2.59375 C 2.5 -2.695312 2.273438 -2.796875 2.109375 -2.890625 C 1.691406 -3.097656 1.363281 -3.335938 1.125 -3.609375 C 0.882812 -3.890625 0.765625 -4.253906 0.765625 -4.703125 C 0.765625 -5.367188 1.023438 -5.890625 1.546875 -6.265625 C 2.066406 -6.640625 2.769531 -6.828125 3.65625 -6.828125 Z M 3.65625 -6.828125 "/></g></g></g><g fill="#30af5b" fill-opacity="1"><g transform="translate(25.107754, 17.419356)"><g><path d="M 1.171875 -6.640625 L 1.171875 -9.109375 L 3.453125 -9.109375 L 3.453125 -6.640625 L 4.859375 -6.640625 L 4.859375 -4.890625 L 3.453125 -4.890625 L 3.453125 -2.78125 C 3.453125 -2.164062 3.625 -1.859375 3.96875 -1.859375 C 4.050781 -1.859375 4.140625 -1.875 4.234375 -1.90625 C 4.335938 -1.945312 4.414062 -1.984375 4.46875 -2.015625 L 4.546875 -2.0625 L 5.109375 -0.21875 C 4.617188 0.0507812 4.054688 0.1875 3.421875 0.1875 C 2.992188 0.1875 2.625 0.113281 2.3125 -0.03125 C 2 -0.1875 1.765625 -0.390625 1.609375 -0.640625 C 1.453125 -0.890625 1.335938 -1.15625 1.265625 -1.4375 C 1.203125 -1.71875 1.171875 -2.019531 1.171875 -2.34375 L 1.171875 -4.890625 L 0.203125 -4.890625 L 0.203125 -6.640625 Z M 1.171875 -6.640625 "/></g></g></g><g fill="#30af5b" fill-opacity="1"><g transform="translate(29.002037, 17.419356)"><g><path d="M 1.40625 -0.78125 C 0.664062 -1.4375 0.296875 -2.28125 0.296875 -3.3125 C 0.296875 -4.34375 0.675781 -5.1875 1.4375 -5.84375 C 2.207031 -6.5 3.160156 -6.828125 4.296875 -6.828125 C 5.410156 -6.828125 6.347656 -6.492188 7.109375 -5.828125 C 7.867188 -5.171875 8.25 -4.332031 8.25 -3.3125 C 8.25 -2.289062 7.875 -1.453125 7.125 -0.796875 C 6.382812 -0.140625 5.441406 0.1875 4.296875 0.1875 C 3.109375 0.1875 2.144531 -0.132812 1.40625 -0.78125 Z M 3.171875 -4.4375 C 2.878906 -4.144531 2.734375 -3.769531 2.734375 -3.3125 C 2.734375 -2.851562 2.875 -2.476562 3.15625 -2.1875 C 3.4375 -1.90625 3.8125 -1.765625 4.28125 -1.765625 C 4.726562 -1.765625 5.097656 -1.910156 5.390625 -2.203125 C 5.679688 -2.492188 5.828125 -2.863281 5.828125 -3.3125 C 5.828125 -3.769531 5.675781 -4.144531 5.375 -4.4375 C 5.070312 -4.726562 4.707031 -4.875 4.28125 -4.875 C 3.84375 -4.875 3.472656 -4.726562 3.171875 -4.4375 Z M 3.171875 -4.4375 "/></g></g></g><g fill="#30af5b" fill-opacity="1"><g transform="translate(36.33832, 17.419356)"><g><path d="M 2.9375 -6.640625 L 2.9375 -3.484375 C 2.9375 -2.828125 3.035156 -2.359375 3.234375 -2.078125 C 3.429688 -1.804688 3.765625 -1.671875 4.234375 -1.671875 C 4.710938 -1.671875 5.050781 -1.804688 5.25 -2.078125 C 5.445312 -2.359375 5.546875 -2.828125 5.546875 -3.484375 L 5.546875 -6.640625 L 7.84375 -6.640625 L 7.84375 -2.921875 C 7.84375 -1.816406 7.554688 -1.019531 6.984375 -0.53125 C 6.410156 -0.0507812 5.5 0.1875 4.25 0.1875 C 3 0.1875 2.082031 -0.0507812 1.5 -0.53125 C 0.925781 -1.019531 0.640625 -1.816406 0.640625 -2.921875 L 0.640625 -6.640625 Z M 2.9375 -6.640625 "/></g></g></g><g fill="#30af5b" fill-opacity="1"><g transform="translate(43.609902, 17.419356)"><g><path d="M 0.78125 0 L 0.78125 -6.640625 L 3.0625 -6.640625 L 3.0625 -5.671875 L 3.09375 -5.671875 C 3.113281 -5.710938 3.140625 -5.757812 3.171875 -5.8125 C 3.210938 -5.863281 3.296875 -5.953125 3.421875 -6.078125 C 3.554688 -6.210938 3.695312 -6.328125 3.84375 -6.421875 C 3.988281 -6.523438 4.175781 -6.617188 4.40625 -6.703125 C 4.644531 -6.785156 4.882812 -6.828125 5.125 -6.828125 C 5.375 -6.828125 5.617188 -6.789062 5.859375 -6.71875 C 6.097656 -6.65625 6.273438 -6.585938 6.390625 -6.515625 L 6.578125 -6.421875 L 5.609375 -4.46875 C 5.328125 -4.71875 4.929688 -4.84375 4.421875 -4.84375 C 4.148438 -4.84375 3.914062 -4.78125 3.71875 -4.65625 C 3.519531 -4.53125 3.378906 -4.378906 3.296875 -4.203125 C 3.210938 -4.035156 3.148438 -3.890625 3.109375 -3.765625 C 3.078125 -3.648438 3.0625 -3.5625 3.0625 -3.5 L 3.0625 0 Z M 0.78125 0 "/></g></g></g><g fill="#30af5b" fill-opacity="1"><g transform="translate(48.836998, 17.419356)"><g><path d="M 2.25 -2.765625 C 2.664062 -2.765625 3.015625 -2.617188 3.296875 -2.328125 C 3.585938 -2.046875 3.734375 -1.695312 3.734375 -1.28125 C 3.734375 -0.875 3.585938 -0.523438 3.296875 -0.234375 C 3.015625 0.046875 2.664062 0.1875 2.25 0.1875 C 1.84375 0.1875 1.492188 0.046875 1.203125 -0.234375 C 0.921875 -0.523438 0.78125 -0.875 0.78125 -1.28125 C 0.78125 -1.695312 0.921875 -2.046875 1.203125 -2.328125 C 1.492188 -2.617188 1.84375 -2.765625 2.25 -2.765625 Z M 2.25 -2.765625 "/></g></g></g></svg>